<?xml version="1.0" standalone="no"?>
<!DOCTYPE svg PUBLIC "-//W3C//DTD SVG 20010904//EN"
 "http://www.w3.org/TR/2001/REC-SVG-20010904/DTD/svg10.dtd">
<svg version="1.0" xmlns="http://www.w3.org/2000/svg"
 width="94.000000pt" height="94.000000pt" viewBox="0 0 94.000000 94.000000"
 preserveAspectRatio="xMidYMid meet">
<metadata>
Created by potrace 1.14, written by Peter Selinger 2001-2017
</metadata>
<g transform="translate(0.000000,94.000000) scale(0.100000,-0.100000)"
fill="#000000" stroke="none">
<path d="M10 465 l0 -465 465 0 465 0 0 465 0 465 -465 0 -465 0 0 -465z m838
3 l-3 -373 -372 -3 -373 -2 0 375 0 375 375 0 375 0 -2 -372z"/>
<path d="M428 583 l-3 -68 -67 -3 -68 -3 0 -44 0 -45 70 0 70 0 0 -70 0 -70
45 0 45 0 0 70 0 70 70 0 70 0 0 45 0 45 -70 0 -70 0 0 70 0 70 -45 0 -44 0
-3 -67z"/>
</g>
</svg>
