<?xml version="1.0" standalone="no"?>
<!DOCTYPE svg PUBLIC "-//W3C//DTD SVG 20010904//EN"
 "http://www.w3.org/TR/2001/REC-SVG-20010904/DTD/svg10.dtd">
<svg version="1.0" xmlns="http://www.w3.org/2000/svg"
 width="112.000000pt" height="112.000000pt" viewBox="0 0 112.000000 112.000000"
 preserveAspectRatio="xMidYMid meet">
<metadata>
Created by potrace 1.14, written by Peter Selinger 2001-2017
</metadata>
<g transform="translate(0.000000,112.000000) scale(0.100000,-0.100000)"
fill="#000000" stroke="none">
<path d="M0 655 l0 -465 45 0 45 0 2 418 3 417 418 3 417 2 0 45 0 45 -465 0
-465 0 0 -465z"/>
<path d="M180 470 l0 -470 470 0 470 0 0 470 0 470 -470 0 -470 0 0 -470z
m595 95 c28 -13 65 -39 83 -58 l33 -34 -43 -45 c-115 -118 -269 -117 -388 2
l-42 42 34 35 c86 90 210 112 323 58z"/>
<path d="M630 553 c-92 -35 -73 -173 24 -173 80 0 121 90 66 145 -26 25 -65
38 -90 28z"/>
</g>
</svg>
