<?xml version="1.0" standalone="no"?>
<!DOCTYPE svg PUBLIC "-//W3C//DTD SVG 20010904//EN"
 "http://www.w3.org/TR/2001/REC-SVG-20010904/DTD/svg10.dtd">
<svg version="1.0" xmlns="http://www.w3.org/2000/svg"
 width="112.000000pt" height="112.000000pt" viewBox="0 0 112.000000 112.000000"
 preserveAspectRatio="xMidYMid meet">
<metadata>
Created by potrace 1.14, written by Peter Selinger 2001-2017
</metadata>
<g transform="translate(0.000000,112.000000) scale(0.100000,-0.100000)"
fill="#000000" stroke="none">
<path d="M0 655 l0 -465 45 0 45 0 2 418 3 417 418 3 417 2 0 45 0 45 -465 0
-465 0 0 -465z"/>
<path d="M190 465 l0 -465 465 0 465 0 0 465 0 465 -465 0 -465 0 0 -465z
m838 3 l-3 -373 -372 -3 -373 -2 0 375 0 375 375 0 375 0 -2 -372z"/>
<path d="M597 589 c-55 -13 -108 -43 -145 -82 l-34 -35 42 -42 c119 -119 273
-120 388 -2 l43 45 -33 34 c-64 66 -179 103 -261 82z m123 -64 c55 -55 14
-145 -66 -145 -97 0 -116 138 -24 173 25 10 64 -3 90 -28z"/>
</g>
</svg>
