<?xml version="1.0" standalone="no"?>
<!DOCTYPE svg PUBLIC "-//W3C//DTD SVG 20010904//EN"
 "http://www.w3.org/TR/2001/REC-SVG-20010904/DTD/svg10.dtd">
<svg version="1.0" xmlns="http://www.w3.org/2000/svg"
 width="112.000000pt" height="112.000000pt" viewBox="0 0 112.000000 112.000000"
 preserveAspectRatio="xMidYMid meet">
<metadata>
Created by potrace 1.14, written by Peter Selinger 2001-2017
</metadata>
<g transform="translate(0.000000,112.000000) scale(0.100000,-0.100000)"
fill="#000000" stroke="none">
<path d="M343 1105 c-166 -45 -285 -165 -328 -332 -66 -252 107 -512 370 -555
79 -13 172 -1 250 32 l49 21 136 -136 c104 -104 141 -135 161 -135 19 0 42 17
82 59 32 33 57 63 57 68 0 4 -63 71 -140 148 l-141 141 26 58 c38 86 51 178
37 261 -44 264 -307 438 -559 370z m225 -244 c78 -40 130 -141 118 -230 -13
-94 -95 -181 -187 -196 -174 -30 -320 152 -250 311 29 64 55 91 116 121 61 29
138 27 203 -6z"/>
</g>
</svg>
