<?xml version="1.0" standalone="no"?>
<!DOCTYPE svg PUBLIC "-//W3C//DTD SVG 20010904//EN"
 "http://www.w3.org/TR/2001/REC-SVG-20010904/DTD/svg10.dtd">
<svg version="1.0" xmlns="http://www.w3.org/2000/svg"
 width="112.000000pt" height="112.000000pt" viewBox="0 0 112.000000 112.000000"
 preserveAspectRatio="xMidYMid meet">
<metadata>
Created by potrace 1.14, written by Peter Selinger 2001-2017
</metadata>
<g transform="translate(0.000000,112.000000) scale(0.100000,-0.100000)"
fill="#000000" stroke="none">
<path d="M343 1105 c-166 -45 -285 -165 -328 -332 -66 -253 109 -515 373 -555
89 -14 182 1 267 42 l60 29 145 -144 145 -145 55 55 55 55 -144 144 -143 143
31 65 c43 90 58 185 43 273 -44 264 -307 438 -559 370z m254 -155 c71 -35 116
-82 151 -158 21 -48 24 -64 20 -140 -5 -100 -26 -150 -88 -212 -69 -69 -111
-85 -225 -85 -92 0 -104 2 -153 29 -215 120 -223 431 -14 553 103 60 202 64
309 13z"/>
</g>
</svg>
