<?xml version="1.0" standalone="no"?>
<!DOCTYPE svg PUBLIC "-//W3C//DTD SVG 20010904//EN"
 "http://www.w3.org/TR/2001/REC-SVG-20010904/DTD/svg10.dtd">
<svg version="1.0" xmlns="http://www.w3.org/2000/svg"
 width="120.000000pt" height="110.000000pt" viewBox="0 0 120.000000 110.000000"
 preserveAspectRatio="xMidYMid meet">
<metadata>
Created by potrace 1.14, written by Peter Selinger 2001-2017
</metadata>
<g transform="translate(0.000000,110.000000) scale(0.100000,-0.100000)"
fill="#000000" stroke="none">
<path d="M295 800 l-300 -300 78 0 77 0 0 -250 0 -250 175 0 175 0 0 125 0
125 100 0 100 0 0 -125 0 -125 175 0 175 0 0 250 0 250 77 0 78 0 -300 300
c-165 165 -302 300 -305 300 -3 0 -140 -135 -305 -300z m482 -22 l173 -173 0
-252 0 -253 -75 0 -75 0 0 125 0 125 -200 0 -200 0 0 -125 0 -125 -75 0 -75 0
0 259 0 259 173 166 c94 91 174 166 177 166 3 0 82 -78 177 -172z"/>
<path d="M850 997 c0 -52 1 -53 75 -127 l75 -74 0 127 0 127 -75 0 -75 0 0
-53z"/>
</g>
</svg>
