<?xml version="1.0" standalone="no"?>
<!DOCTYPE svg PUBLIC "-//W3C//DTD SVG 20010904//EN"
 "http://www.w3.org/TR/2001/REC-SVG-20010904/DTD/svg10.dtd">
<svg version="1.0" xmlns="http://www.w3.org/2000/svg"
 width="112.000000pt" height="112.000000pt" viewBox="0 0 112.000000 112.000000"
 preserveAspectRatio="xMidYMid meet">
<metadata>
Created by potrace 1.14, written by Peter Selinger 2001-2017
</metadata>
<g transform="translate(0.000000,112.000000) scale(0.100000,-0.100000)"
fill="#000000" stroke="none">
<path d="M426 1104 c-194 -47 -364 -219 -411 -415 -94 -402 272 -768 674 -674
199 47 369 217 416 416 95 403 -276 771 -679 673z m216 -145 c212 -44 358
-257 319 -465 -10 -58 -38 -125 -70 -174 -8 -12 -12 -12 -29 3 -10 10 -52 27
-93 38 -41 11 -82 28 -92 38 -18 18 -18 21 16 99 74 166 69 276 -13 346 -84
71 -214 51 -276 -41 -46 -69 -39 -168 23 -307 34 -76 35 -79 17 -97 -11 -10
-52 -27 -93 -38 -41 -11 -83 -28 -93 -38 -22 -20 -22 -19 -63 58 -153 294 120
646 447 578z"/>
</g>
</svg>
